<svg width="102" height="102" viewBox="0 0 102 102" fill="none" xmlns="http://www.w3.org/2000/svg">
<g clip-path="url(#clip0_2515_5394)">
<path d="M68.9646 34.0352L50.6734 31.4184L43.174 32.4768L32.3822 34.0352L30.393 33.4927L27.8187 32.78L23 39.5242L28.6432 45.8854L25.42 57.9057L30.393 64.3467L32.3822 66.8785H36.3181L37.2063 63.634L37.8127 61.3204L37.8765 61.1023L30.393 56.6931L29.7016 56.2622L30.393 53.6454L31.9727 47.7842L43.174 50.7893L44.1686 51.0712L43.2591 54.422L43.174 54.4007L34.4353 52.0445L33.7438 54.5762L41.94 59.4163L39.9295 66.8997L43.174 73.2982L43.4984 73.9684H49.5299L45.961 66.8785H55.3911L51.801 73.9684H57.8324L61.4226 66.8997L59.4068 59.4163L67.5817 54.5762L66.9115 52.0445L58.0718 54.422L57.1623 51.0712L69.3741 47.7842L71.6452 56.2622L63.4543 61.1023L63.5182 61.3204L64.1458 63.634L65.0074 66.8785H68.9646L75.9268 57.9057L72.709 45.8854L78.3309 39.5242L73.5068 32.78L68.9646 34.0352Z" fill="white"/>
</g>
<defs>
<clipPath id="clip0_2515_5394">
<rect width="55.3309" height="55.3309" fill="white" transform="translate(23 25)"/>
</clipPath>
</defs>
</svg>
